<?xml version="1.0" encoding="UTF-8" standalone="no"?>
<!-- Created with Inkscape (http://www.inkscape.org/) -->

<svg
   width="59.657257mm"
   height="53.712227mm"
   viewBox="0 0 59.657257 53.712227"
   version="1.1"
   id="svg1"
   xml:space="preserve"
   inkscape:version="1.3.2 (091e20e, 2023-11-25, custom)"
   sodipodi:docname="LOGOWEB.svg"
   xmlns:inkscape="http://www.inkscape.org/namespaces/inkscape"
   xmlns:sodipodi="http://sodipodi.sourceforge.net/DTD/sodipodi-0.dtd"
   xmlns="http://www.w3.org/2000/svg"
   xmlns:svg="http://www.w3.org/2000/svg"><sodipodi:namedview
     id="namedview1"
     pagecolor="#ffffff"
     bordercolor="#cccccc"
     borderopacity="1"
     inkscape:showpageshadow="0"
     inkscape:pageopacity="1"
     inkscape:pagecheckerboard="0"
     inkscape:deskcolor="#d1d1d1"
     inkscape:document-units="mm"
     inkscape:zoom="1.0544998"
     inkscape:cx="400.18974"
     inkscape:cy="550.49797"
     inkscape:window-width="1920"
     inkscape:window-height="1051"
     inkscape:window-x="-9"
     inkscape:window-y="-9"
     inkscape:window-maximized="1"
     inkscape:current-layer="layer1" /><defs
     id="defs1"><inkscape:path-effect
       effect="perspective-envelope"
       up_left_point="352.48242,524.76"
       up_right_point="456.13351,524.76"
       down_left_point="352.48242,590.27"
       down_right_point="456.13351,556.27"
       id="path-effect2"
       is_visible="true"
       lpeversion="1"
       deform_type="perspective"
       horizontal_mirror="false"
       vertical_mirror="false"
       overflow_perspective="false" /><inkscape:path-effect
       effect="perspective-envelope"
       up_left_point="71.341798,550.31"
       up_right_point="189.61269,555.31"
       down_left_point="71.34,590"
       down_right_point="189.61269,614.33931"
       id="path-effect1"
       is_visible="true"
       lpeversion="1"
       deform_type="perspective"
       horizontal_mirror="false"
       vertical_mirror="false"
       overflow_perspective="false" /><clipPath
       clipPathUnits="userSpaceOnUse"
       id="clipPath61"><path
         id="path61"
         style="fill:#ff0000;fill-opacity:1;fill-rule:nonzero;stroke:none;stroke-width:0.264583"
         d="m 82.327792,84.27031 c 0.05336,0.02588 0.105384,0.05449 0.154512,0.08837 0.0021,2.64e-4 0.0045,2.35e-4 0.0067,5.29e-4 v -0.08888 z" /></clipPath><clipPath
       clipPathUnits="userSpaceOnUse"
       id="clipPath67"><path
         id="path68"
         style="fill:#ff0000;fill-opacity:1;fill-rule:nonzero;stroke:none;stroke-width:0.264583"
         d="M 60.516204,58.591773 V 113.09697 H 95.460841 V 58.591773 Z M 77.32758,82.865227 c 0.303652,0.0065 0.358651,0.342633 -0.01241,0.442349 -0.212156,0.05702 -0.423627,0.116536 -0.634069,0.179835 0.871519,0.08662 1.748862,0.123878 2.616894,0.242361 0.169426,0.02312 0.33728,0.05646 0.505912,0.08475 0.180488,0.04874 0.388475,0.08991 0.553456,0.1788 0.306826,0.0095 0.613346,0.02455 0.919323,0.05064 0.139134,0.01185 0.277231,0.03139 0.415997,0.04703 0.274177,0.0462 0.558691,0.108476 0.789614,0.267684 0.107829,0.01413 0.217393,0.01738 0.325562,0.02429 0.126921,0.01 0.603547,0.0258 0.695563,0.128674 0.551262,0.616337 0.03836,0.827032 -0.434596,0.988055 -0.08588,0.02093 -0.170619,0.04599 -0.25735,0.06304 -0.109987,0.02162 -0.222933,0.02379 -0.334346,0.03411 0.01286,0.01122 0.02508,0.02336 0.03824,0.03411 -0.135993,0.155186 -0.246626,0.337513 -0.403077,0.470773 0.0029,0.0038 0.0061,0.0074 0.0088,0.01138 0.01341,0.01971 -0.0081,0.01881 -0.03824,0.01291 -0.0027,0.0021 -0.0049,0.0047 -0.0078,0.0067 -0.06091,0.04638 -0.152952,0.0052 -0.229444,0.0078 -0.09494,0.0032 -0.189788,0.0089 -0.284736,0.01241 -0.200144,0.105314 -0.40576,0.198781 -0.628386,0.249597 -0.102184,0.02334 -0.207068,0.03313 -0.310575,0.04961 -0.158047,-0.0145 -0.317347,-0.02045 -0.47439,-0.04341 -0.268174,-0.03919 -0.787795,-0.165362 -1.043864,-0.223242 -0.527624,-0.119261 -1.056454,-0.232047 -1.585949,-0.342614 -0.370295,-0.0792 -0.749573,-0.14808 -1.097092,-0.305925 -0.126389,-0.05741 -0.334198,-0.172714 -0.42013,-0.294555 -0.04085,-0.05792 -0.066,-0.125158 -0.09198,-0.19172 -0.118258,0.04814 -0.237019,0.09523 -0.354499,0.144696 -0.182169,0.08007 -0.359252,0.170542 -0.47956,0.332795 -0.09607,0.18447 -0.267526,0.298294 -0.433046,0.414446 0.0254,0.101817 0.0021,0.214749 -0.128675,0.287319 -0.0713,0.03954 -0.136462,0.09349 -0.213942,0.118856 -0.07114,0.02331 -0.14841,0.02249 -0.223243,0.02429 -0.05554,0.0013 -0.108645,-0.01132 -0.163298,-0.01551 -0.133524,0.02334 -0.24411,-0.0011 -0.321942,-0.05684 -0.08606,-0.02514 -0.172723,-0.0483 -0.254765,-0.08837 -0.05875,-0.09152 -0.157467,-0.167793 -0.176218,-0.27492 -0.033,-0.188543 0.124937,-0.313952 0.247531,-0.405144 0.06776,-0.0504 0.138917,-0.09555 0.212908,-0.135908 -0.07853,-0.0631 -0.139499,-0.147037 -0.170532,-0.266134 -0.02167,-0.08319 0.01881,-0.170873 0.02842,-0.256315 0.04869,-0.08074 0.08577,-0.170032 0.146243,-0.242361 0.109799,-0.131329 0.445915,-0.389692 0.569992,-0.479557 0.385826,-0.279459 0.799039,-0.512504 1.240234,-0.6935 0.124164,-0.04854 0.247954,-0.09833 0.372586,-0.145727 0.03175,-0.01664 0.06619,-0.02953 0.103354,-0.03876 0.417621,-0.150754 0.844154,-0.2749 1.272789,-0.389641 0.05302,-0.01418 0.101314,-0.02003 0.144695,-0.01913 z m -2.431375,1.362189 c -0.153972,0.09127 -0.306819,0.184841 -0.452171,0.290938 -0.113273,0.08268 -0.416102,0.314958 -0.518313,0.438217 -0.03063,0.03694 -0.03963,0.08703 -0.05943,0.130741 0.05945,0.105055 -0.01286,0.01169 0.06873,0.0011 0.03056,-0.004 0.0583,0.01971 0.08785,0.02842 0.03582,0.01061 0.07199,0.01955 0.108005,0.02946 0.0269,0.0074 0.07543,-0.0056 0.08113,0.0217 0.01011,0.04812 0.0097,0.0976 0.01138,0.146761 0.02006,-0.01429 0.04189,-0.03125 0.0925,-0.06511 0.01662,-0.01114 0.03323,-0.02265 0.05064,-0.03256 0.004,-0.0024 0.01042,-1.38e-4 0.01344,-0.0036 0.04049,-0.04744 0.06105,-0.109781 0.104386,-0.15503 0.0721,-0.08792 0.09215,-0.118657 0.179319,-0.196887 0.122462,-0.109902 0.262131,-0.195278 0.407728,-0.26975 -0.11911,-0.154001 -0.170434,-0.270532 -0.175183,-0.364321 z" /></clipPath></defs><g
     inkscape:label="Layer 1"
     inkscape:groupmode="layer"
     id="layer1"
     transform="translate(-33.428086,-97.289914)"><g
       id="g41"><g
         id="g2"
         inkscape:export-filename="g2.png"
         inkscape:export-xdpi="127.72964"
         inkscape:export-ydpi="127.72964"><g
           id="g1"
           transform="matrix(0.56696272,0,0,0.52554606,21.079011,73.982919)"
           inkscape:export-filename="g1.png"
           inkscape:export-xdpi="425.60406"
           inkscape:export-ydpi="425.60406"><path
             style="fill:none;stroke:#000000;stroke-width:2.321;stroke-dasharray:none;stroke-opacity:1"
             d="m 72.10752,107.7256 c -0.22177,-0.13306 -0.38351,-0.69019 -0.38351,-0.69019 l -0.17741,-0.39919 0.0443,-6.25403 -0.12897,-0.1441 -0.18818,-0.16465 -0.0235,-0.0627 -0.008,-0.0941 -0.0314,-2.218981 -0.0941,-0.0627 -0.20387,-0.15681 -0.15681,-0.0784 -0.1725,-0.0941 -0.1725,-0.0941 -0.18818,-0.10978 -0.31364,-0.26659 -0.20386,-0.20386 -0.26588,-0.28538 -0.11089,-0.18851 -0.0998,-0.1996 -0.11089,-0.210683 -0.0555,-0.155244 -0.12551,-3.79058 -0.12546,-0.250907 -0.10977,-0.313637 -0.0314,-0.219546 -0.047,-0.219546 -0.0941,-0.172498 -0.15682,-0.376364 -0.18818,-0.392044 -3.55724,-6.107618 -0.70968,-1.39718 -0.4879,-0.84274 -0.55444,-1.197581 -0.70967,-1.729838 -0.33267,-1.330645 -0.0887,-1.108871 -0.0665,-0.931452 0.0222,-1.907257 0.26612,-1.796373 0.37702,-1.219758 0.97581,-2.262095 c 0,0 0.75403,-1.108872 0.77621,-1.219758 0.0222,-0.110887 1.04234,-1.330646 1.04234,-1.330646 l 0.51008,-0.598791 0.86492,-0.864918 0.66532,-0.53226 0.39919,-0.33266 0.82057,-0.554437 1.04234,-0.643144 0.95362,-0.51008 1.21976,-0.510082 0.79839,-0.310483 1.08669,-0.332661 1.66331,-0.332663 1.70766,-0.155242 0.84274,-0.04435 0.95363,0.02217 1.59678,0.133064 1.99596,0.310486 1.33065,0.354838 1.35282,0.510079 1.44153,0.709679 1.02016,0.620967 1.35283,1.042339 1.28629,1.219758 0.99798,0.997985 0.8871,1.219758 0.70967,1.241935 0.66533,1.485887 0.46572,1.308468 0.3992,1.70766 0.13306,2.084679 v 1.79637 l -0.42137,1.973792 -0.53226,1.374999 -1.28629,2.594759 -1.30847,2.417336 -1.1754,1.929437 -0.8871,1.574596 -0.53225,0.731856 -0.3992,0.687499 -0.2883,0.687501 -0.22178,0.731854 -0.1996,0.931452 0.0222,0.798385 -0.0444,1.618954 -0.0444,0.887095 -0.1996,0.421375 -0.22177,0.39919 -0.53226,0.62097 -0.28831,0.22177 -0.42137,0.22178 -0.15524,0.0887 -0.0443,2.350811 -0.0836,0.17473 -0.1604,0.18011 -0.13306,0.17742 -0.0666,5.63307 -0.0444,0.59879 -0.11089,0.31048 -0.19959,0.26613 -0.0443,0.26609 -0.15523,0.37702 -0.15519,0.37702 -0.1996,0.59879 -0.44355,0.79839 -0.70967,0.88709 -0.82057,0.70968 -0.84274,0.51008 -1.15323,0.28831 h -3.21572 l -1.30847,-0.35484 -0.6875,-0.3992 -0.79839,-0.62096 -0.51008,-0.57662 -0.62097,-0.9758 -0.2883,-0.57662 -0.0887,-0.44354 z"
             id="path1"
             sodipodi:nodetypes="ccccccccccccccccccccccccccccccccccccccccccsccccccccccccccccccccccccccccccccccccccccccccccccccccccccccccccccccccccccccccc"
             clip-path="url(#clipPath67)" /><path
             style="fill:#000000;fill-opacity:1;stroke:none;stroke-width:2.321;stroke-dasharray:none;stroke-opacity:1"
             d="m 71.618605,96.728516 12.657636,0.02598 -0.849048,14.021764 -9.534535,0.50182 -2.007272,-6.64909 z"
             id="path2"
             sodipodi:nodetypes="cccccc" /><path
             style="fill:#000000;fill-opacity:1;stroke:none;stroke-width:2.321;stroke-dasharray:none;stroke-opacity:1"
             id="path11"
             d="m 82.489191,84.490943 c -0.02733,-0.02477 -0.0542,-0.04997 -0.08046,-0.07586 -0.02154,-0.0227 -0.04207,-0.04639 -0.06216,-0.07037 -0.01394,-0.01471 -0.01929,-0.03601 -0.0347,-0.04925 -0.03106,-0.01667 -0.04774,-0.042 -0.06246,-0.01013 0,0 0.04304,0.02429 0.04304,0.02429 v 0 c 0.0013,-0.0027 0.0021,-0.0058 0.0046,-0.0078 0.01254,-0.0104 0.06233,0.03319 -0.03115,-0.02442 0.0016,7.94e-4 0.0035,0.0016 0.005,0.0026 0.0048,0.0037 0.0069,0.0078 0.01,0.01291 0.0068,0.01111 0.01297,0.02265 0.02119,0.03284 0.02016,0.02413 0.04071,0.04801 0.06225,0.07091 0.02598,0.02559 0.05251,0.05059 0.07928,0.07534 z"
             clip-path="url(#clipPath61)" /><rect
             style="fill:#000000;fill-opacity:1;stroke:none;stroke-width:2.321;stroke-dasharray:none;stroke-opacity:1"
             id="rect48"
             width="9.7227182"
             height="1.7563604"
             x="44.348145"
             y="-79.161751"
             ry="0.87818021"
             transform="rotate(90)" /><rect
             style="fill:#000000;fill-opacity:1;stroke:none;stroke-width:2.321;stroke-dasharray:none;stroke-opacity:1"
             id="rect48-1"
             width="9.7227182"
             height="1.7563604"
             x="7.8758063"
             y="-104.58287"
             ry="0.87818021"
             transform="rotate(112.80046)" /><rect
             style="fill:#000000;fill-opacity:1;stroke:none;stroke-width:2.321;stroke-dasharray:none;stroke-opacity:1"
             id="rect48-2"
             width="9.7227182"
             height="1.7563604"
             x="-34.739021"
             y="-113.45071"
             ry="0.87818021"
             transform="rotate(135.33651)" /><rect
             style="fill:#000000;fill-opacity:1;stroke:none;stroke-width:2.321;stroke-dasharray:none;stroke-opacity:1"
             id="rect48-2-5"
             width="9.7227182"
             height="1.7563604"
             x="-132.07895"
             y="34.94503"
             ry="0.87818021"
             transform="matrix(-0.91612973,-0.40088192,-0.40088192,0.91612973,0,0)" /><rect
             style="fill:#000000;fill-opacity:1;stroke:none;stroke-width:2.321;stroke-dasharray:none;stroke-opacity:1"
             id="rect48-2-0"
             width="9.7227182"
             height="1.7563604"
             x="-107.1241"
             y="-73.42749"
             ry="0.87818021"
             transform="rotate(179.48045)" /><rect
             style="fill:#000000;fill-opacity:1;stroke:none;stroke-width:2.321;stroke-dasharray:none;stroke-opacity:1"
             id="rect48-2-19"
             width="9.7227182"
             height="1.7563604"
             x="-139.74301"
             y="-3.1573048"
             ry="0.87818021"
             transform="rotate(-137.59546)" /><rect
             style="fill:#000000;fill-opacity:1;stroke:none;stroke-width:2.321;stroke-dasharray:none;stroke-opacity:1"
             id="rect48-1-2"
             width="9.7227182"
             height="1.7563604"
             x="68.223419"
             y="39.136574"
             ry="0.87818021"
             transform="matrix(0.38752299,0.92186004,0.92186004,-0.38752299,0,0)" /><rect
             style="fill:#000000;fill-opacity:1;stroke:none;stroke-width:2.321;stroke-dasharray:none;stroke-opacity:1"
             id="rect48-2-07"
             width="9.7227182"
             height="1.7563604"
             x="76.082947"
             y="-3.8349884"
             ry="0.87818021"
             transform="matrix(0.71124755,0.70294162,0.70294162,-0.71124755,0,0)" /><rect
             style="fill:#000000;fill-opacity:1;stroke:none;stroke-width:2.321;stroke-dasharray:none;stroke-opacity:1"
             id="rect48-2-5-4"
             width="9.7227182"
             height="1.7563604"
             x="10.74811"
             y="97.37532"
             ry="0.87818021"
             transform="rotate(-23.633323)" /><rect
             style="fill:#000000;fill-opacity:1;stroke:none;stroke-width:2.321;stroke-dasharray:none;stroke-opacity:1"
             id="rect48-2-0-5"
             width="9.7227182"
             height="1.7563604"
             x="48.744228"
             y="-71.951523"
             ry="0.87818021"
             transform="matrix(0.99995889,0.00906773,0.00906773,-0.99995889,0,0)" /><rect
             style="fill:#000000;fill-opacity:1;stroke:none;stroke-width:2.321;stroke-dasharray:none;stroke-opacity:1"
             id="rect48-2-19-2"
             width="9.7227182"
             height="1.7563604"
             x="-24.602221"
             y="-108.22733"
             ry="0.87818021"
             transform="matrix(0.73840191,-0.6743609,-0.6743609,-0.73840191,0,0)" /></g><path
           style="font-stretch:condensed;font-size:74.6667px;font-family:Impact;-inkscape-font-specification:'Impact, Condensed';white-space:pre;stroke-width:1.59118"
           d="m 71.341798,550.31 18.834722,0.79625 -3.26e-4,8.55913 -8.056056,-0.60419 -3.23e-4,7.8603 7.148319,0.75775 -3.12e-4,8.10832 -7.148332,-0.98012 -7.17e-4,17.41072 L 71.34,590 Z m 34.620882,1.46363 -0.001,45.35107 -12.850198,-2.64444 0.0016,-43.24988 z m 40.70305,1.72075 -8.6e-4,52.00671 -14.80792,-3.04732 -8.15341,-23.61371 -5.6e-4,21.93571 -12.22517,-2.51582 0.001,-46.25311 12.225,0.51682 8.80519,22.74724 4.9e-4,-22.37497 z m 7.27571,0.30759 34.15938,1.44411 0,11.76347 -14.49983,-1.08746 -7e-5,10.69676 13.53463,1.43473 -1e-5,11.15272 -13.53468,-1.85575 -8e-5,12.40427 16.01191,2.77112 v 11.81337 l -35.67198,-7.34093 z"
           id="text1"
           transform="matrix(0.26458333,0,0,0.26458333,14.552713,-11.541807)"
           aria-label="FINE"
           inkscape:path-effect="#path-effect1"
           inkscape:original-d="m 71.341798,555.31324 h 25.994804 v 11.8125 H 86.690764 v 11.19272 h 9.479171 v 11.22917 h -9.479171 v 24.79168 H 71.341798 Z m 45.062522,0 v 59.02607 h -15.34897 v -59.02607 z m 40.43231,0 v 59.02607 H 143.3835 l -7.98438,-26.83335 v 26.83335 h -12.83334 v -59.02607 h 12.83334 l 8.60417,26.57814 v -26.57814 z m 6.16146,0 h 25.59377 v 11.8125 h -10.2448 v 11.19272 h 9.58855 v 11.22917 h -9.58855 v 12.97917 h 11.26563 v 11.81251 h -26.6146 z" /><path
           d="m 388.56443,525.84176 v 34.42533 c 0,5.15426 -0.0849,8.49657 -0.25481,10.02934 -0.17031,1.51467 -0.95835,3.07619 -2.38204,4.703 -1.41287,1.64413 -3.39524,3.11524 -5.98707,4.42154 -2.63351,1.31177 -6.77888,2.88218 -12.65059,4.76942 l -14.8075,4.75932 v -10.98953 c 1.90193,-0.42972 3.25588,-0.75272 4.08363,-0.97371 2.15783,-0.57607 3.82681,-1.29512 5.031,-2.15843 1.18918,-0.85255 1.86852,-1.68961 2.04885,-2.51795 0.18,-0.82676 0.26987,-2.36222 0.26987,-4.60758 v -41.69779 z m 42.40768,22.06453 c 0,3.83414 -0.11181,6.58001 -0.33604,8.24218 -0.20628,1.64745 -0.88629,3.30013 -2.05604,4.97752 -1.17259,1.70372 -2.80145,3.25761 -4.92185,4.67202 -2.19275,1.46265 -4.84369,2.71351 -8.00473,3.7504 -3.14124,1.03041 -6.09456,1.61088 -8.82658,1.70818 -2.8109,0.0732 -5.15634,-0.43849 -6.98678,-1.55709 -1.87552,-1.14614 -3.01398,-2.68582 -3.38185,-4.60454 -0.36961,-1.92783 -0.55507,-5.42763 -0.55507,-10.49254 v -8.41787 c 0,-4.94335 0.17003,-8.45226 0.50898,-10.51998 0.36808,-2.08065 1.46197,-4.00314 3.25129,-5.74402 1.7771,-1.70164 4.10175,-2.99599 6.92208,-3.88649 2.71515,-0.85729 5.75344,-1.27406 9.06793,-1.27406 3.00308,0 5.58423,0.36497 7.78457,1.07653 2.14793,0.67134 3.82128,1.67662 5.05482,3.01242 1.20943,1.30968 1.91816,2.73869 2.14323,4.3018 0.22423,1.55734 0.33604,4.29807 0.33604,8.22649 z m -13.01964,-11.40033 c 0,-1.96636 -0.14857,-3.20983 -0.4467,-3.73213 -0.27637,-0.5434 -0.86743,-0.79183 -1.78149,-0.74314 -0.78312,0.0417 -1.39445,0.30662 -1.82926,0.79663 -0.41318,0.47363 -0.6207,1.83699 -0.6207,4.08797 v 20.42088 c 0,2.5391 0.13435,4.07031 0.40227,4.59211 0.29109,0.51318 0.9416,0.6301 1.94142,0.3554 1.00869,-0.27713 1.646,-0.78455 1.92223,-1.52304 0.2751,-0.73548 0.41223,-2.3463 0.41223,-4.83471 z m 17.251,-10.97253 9.99146,-0.066 c 2.81067,-0.0186 4.84017,0.17326 6.17127,0.56695 1.30942,0.38337 2.34009,1.1705 3.10827,2.35481 0.75629,1.15341 1.13005,3.03811 1.13005,5.66745 0,1.77793 -0.26668,3.05147 -0.80449,3.82704 -0.53166,0.78249 -1.60639,1.48694 -3.26025,2.12245 1.83977,0.14402 3.04949,0.65149 3.67311,1.51792 0.61569,0.84293 0.92062,2.24411 0.92062,4.21154 v 2.80171 c 0,2.04215 -0.22264,3.61842 -0.67103,4.73659 -0.44063,1.12499 -1.15768,2.02891 -2.16341,2.71448 -1.0266,0.6998 -3.1979,1.5855 -6.66599,2.70018 l -11.42961,3.67362 z m 10.0132,5.69563 v 7.48829 c 0.39005,-0.0647 0.69147,-0.1109 0.90572,-0.13882 0.87648,-0.11418 1.42737,-0.38942 1.66269,-0.82565 0.23426,-0.44777 0.351,-1.6421 0.351,-3.58448 0,-1.02515 -0.0961,-1.73297 -0.28889,-2.12455 -0.19348,-0.40658 -0.45026,-0.65459 -0.77127,-0.74329 -0.30889,-0.0901 -0.92503,-0.11427 -1.85925,-0.0715 z m 0,12.7301 v 9.42276 c 1.27505,-0.38224 2.06883,-0.7847 2.40241,-1.21211 0.34524,-0.42826 0.517,-1.30229 0.517,-2.62419 v -3.0552 c 0,-1.40284 -0.15112,-2.22434 -0.45469,-2.46557 -0.30534,-0.24263 -1.11894,-0.26614 -2.46472,-0.0657 z"
           id="text2"
           style="font-stretch:condensed;font-size:74.6667px;font-family:Impact;-inkscape-font-specification:'Impact, Condensed';white-space:pre;stroke-width:1.59118"
           transform="matrix(0.26458333,0,0,0.23678115,-27.599973,11.3447)"
           aria-label="JOB"
           inkscape:path-effect="#path-effect2"
           inkscape:original-d="m 373.66472,506.00074 v 39.44793 q 0,8.85938 -0.18229,11.41147 -0.18229,2.51562 -1.67708,4.55729 -1.45834,2.04167 -4.01042,2.84375 -2.51563,0.76563 -7.6198,0.76563 h -7.69271 v -10.31772 q 1.38542,0.10938 2.00521,0.10938 1.64063,0 2.58854,-0.80208 0.94792,-0.80209 1.09375,-1.96876 0.14584,-1.16666 0.14584,-4.52083 v -41.52606 z m 41.01565,34.56251 q 0,8.89584 -0.4375,12.61459 -0.40104,3.6823 -2.625,6.7448 -2.1875,3.0625 -5.94271,4.70313 -3.75521,1.64062 -8.75001,1.64062 -4.73958,0 -8.53125,-1.53125 -3.75521,-1.56771 -6.05209,-4.66667 -2.29688,-3.09896 -2.73438,-6.74479 -0.4375,-3.64584 -0.4375,-12.76043 v -10.09896 q 0,-8.89584 0.40105,-12.57813 0.4375,-3.71875 2.625,-6.78125 2.22396,-3.0625 5.97917,-4.70313 3.75521,-1.64063 8.75,-1.64063 4.73959,0 8.4948,1.56771 3.79167,1.53125 6.08854,4.63021 2.29688,3.09896 2.73438,6.7448 0.4375,3.64583 0.4375,12.76042 z M 399.3314,521.16741 q 0,-4.11979 -0.47396,-5.25 -0.4375,-1.16667 -1.85937,-1.16667 -1.20313,0 -1.85938,0.94792 -0.61979,0.91146 -0.61979,5.46875 v 27.56251 q 0,5.14063 0.40104,6.34376 0.4375,1.20312 1.96875,1.20312 1.56771,0 2.00521,-1.38541 0.4375,-1.38542 0.4375,-6.59897 z m 21.07293,-15.16667 h 15.31251 q 7.25521,0 10.97396,1.13021 3.75521,1.13021 6.05209,4.59375 2.29687,3.42708 2.29687,11.08334 0,5.17708 -1.64062,7.21875 -1.60417,2.04167 -6.38022,3.13542 5.32292,1.20312 7.21876,4.01042 1.89583,2.77083 1.89583,8.53125 v 5.46875 q 0,5.97917 -1.38541,8.85938 -1.34896,2.88021 -4.33855,3.93751 -2.98958,1.05729 -12.25,1.05729 h -17.75522 z m 15.34896,10.09896 v 13.12501 q 0.98438,-0.0365 1.53126,-0.0365 2.26041,0 2.8802,-1.09375 0.6198,-1.13021 0.6198,-6.38021 0,-2.77084 -0.51042,-3.86459 -0.51042,-1.13021 -1.34896,-1.42187 -0.80208,-0.29167 -3.17188,-0.32813 z m 0,22.31251 v 16.51563 q 3.2448,-0.10937 4.1198,-1.02083 0.91146,-0.91146 0.91146,-4.48438 v -5.50521 q 0,-3.79167 -0.80209,-4.59375 -0.80208,-0.80208 -4.22917,-0.91146 z" /></g><path
         style="fill:#3d3d3d;fill-opacity:1;stroke:none;stroke-width:0.754472;stroke-opacity:1"
         d="m 241.26721,503.38982 c -4.28728,-1.48157 -7.09982,-4.3068 -9.51089,-9.55378 -0.82893,-1.80393 -1.0188,-3.39203 -1.22849,-10.27486 l -0.24801,-8.14115 -2.34564,-2.29034 -2.34565,-2.29034 -0.2649,-4.31678 c -0.31953,-5.20701 -0.72925,-6.24457 -5.48516,-13.89013 -5.59334,-8.99182 -6.95564,-11.37361 -8.43486,-14.7471 -1.28214,-2.92406 -1.35137,-3.43444 -1.35049,-9.95733 9.1e-4,-6.79945 0.0187,-6.91453 1.60894,-10.43149 5.42799,-12.00411 17.15455,-19.82553 31.61553,-21.08702 4.5677,-0.39846 11.88899,0.38486 16.29223,1.74313 11.455,3.53354 20.72399,12.65567 23.50966,23.13716 1.04395,3.92799 0.91677,11.25335 -0.2558,14.73408 -1.12844,3.3497 -4.45261,9.4569 -8.89752,16.3466 -4.86381,7.539 -5.31465,8.53992 -5.32061,11.81259 -0.009,4.68784 -0.45168,6.26609 -2.37187,8.44753 -2.04312,2.32112 -2.23791,3.24762 -2.76356,13.14475 -0.30697,5.77966 -0.48181,6.70183 -1.80081,9.49817 -1.85109,3.92442 -5.41346,7.26113 -8.8379,8.27808 -3.24146,0.96261 -8.5244,0.88871 -11.5642,-0.16177 z m 20.12932,-32.16167 c 2.13529,-1.3214 2.47265,-2.05435 2.47265,-5.37203 0,-4.71886 0.96124,-7.13705 5.93533,-14.93143 2.49637,-3.9118 5.61337,-9.25695 6.92667,-11.87811 2.10254,-4.19638 2.41786,-5.21602 2.6394,-8.53485 0.33265,-4.98326 -0.3993,-8.6079 -2.71509,-13.44518 -3.02606,-6.32094 -9.43794,-11.87871 -16.77791,-14.54297 -6.1454,-2.23067 -16.6479,-2.65767 -23.03543,-0.93656 -1.43433,0.38648 -4.54718,1.66267 -6.91744,2.83599 -9.9148,4.90796 -15.84217,13.70238 -15.84217,23.505 0,6.17675 1.86303,10.57009 9.83005,23.18098 5.25587,8.31943 5.81543,9.68348 5.82444,14.19831 0.008,4.02239 0.18789,4.49916 2.17698,5.77093 1.24833,0.79816 2.58038,0.88032 14.78361,0.91186 11.77258,0.0304 13.56898,-0.0627 14.69891,-0.76194 z"
         id="path5"
         transform="scale(0.26458333)" /><path
         style="fill:#3d3d3d;fill-opacity:1;stroke:none;stroke-width:0.754472;stroke-opacity:1"
         d="m 185.68291,450.03648 c -0.29721,-0.35813 -0.42269,-0.95787 -0.27883,-1.33277 0.14386,-0.37489 4.12173,-2.2345 8.8397,-4.13246 7.65295,-3.07865 8.65542,-3.37356 9.29463,-2.73435 0.39406,0.39407 0.59968,1.02088 0.45692,1.39291 -0.22882,0.59627 -16.16501,7.45781 -17.32106,7.45781 -0.24803,0 -0.69414,-0.29302 -0.99136,-0.65114 z"
         id="path6"
         transform="scale(0.26458333)" /><path
         style="fill:#3d3d3d;fill-opacity:1;stroke:none;stroke-width:0.188618;stroke-opacity:1"
         d="m 187.40557,423.36855 c -3.05244,-0.0564 -3.48022,-0.0879 -3.7693,-0.27747 -0.83953,-0.55067 -1.04554,-1.67857 -0.43384,-2.37525 0.6491,-0.73929 0.23856,-0.71283 9.96055,-0.64205 8.33178,0.0607 8.90328,0.0781 9.32474,0.28469 0.92315,0.45252 1.25067,1.50696 0.71645,2.30663 -0.55701,0.8338 -0.44168,0.82022 -6.72476,0.79217 -3.09685,-0.0138 -7.18008,-0.0537 -9.07384,-0.0887 z"
         id="path7"
         transform="scale(0.26458333)" /><path
         style="fill:#3d3d3d;fill-opacity:1;stroke:none;stroke-width:0.188618;stroke-opacity:1"
         d="m 203.88814,403.87283 c -0.49986,-0.22514 -12.75685,-11.48396 -13.00973,-11.95026 -0.26789,-0.49399 -0.2618,-0.82253 0.0257,-1.38604 0.1597,-0.31304 0.39546,-0.53553 0.74866,-0.70651 0.60566,-0.2932 1.00699,-0.31332 1.56866,-0.0786 0.51351,0.21456 12.86913,11.52707 13.06895,11.96561 0.63132,1.3856 -0.95384,2.80819 -2.40222,2.15584 z"
         id="path8"
         transform="scale(0.26458333)" /><path
         style="fill:#3d3d3d;fill-opacity:1;stroke:none;stroke-width:0.188618;stroke-opacity:1"
         d="m 221.88538,391.40459 c -0.20702,-0.10209 -0.45653,-0.27424 -0.55446,-0.38255 -0.0979,-0.10831 -1.73498,-3.62957 -3.63789,-7.82501 -3.74455,-8.25582 -3.64954,-7.98568 -3.08666,-8.77617 0.66461,-0.93336 2.32037,-0.94933 2.95542,-0.0285 0.26274,0.38098 6.8445,14.89441 6.956,15.33869 0.0537,0.21396 -0.002,0.48509 -0.16951,0.83207 -0.43729,0.90333 -1.55982,1.28685 -2.4629,0.84148 z"
         id="path9"
         transform="scale(0.26458333)" /><path
         style="fill:#3d3d3d;fill-opacity:1;stroke:none;stroke-width:0.188618;stroke-opacity:1"
         d="m 246.67506,386.80583 c -0.52833,-0.23012 -0.97626,-0.82389 -1.05951,-1.40447 -0.0397,-0.27678 -0.0563,-4.08665 -0.0368,-8.46639 0.0348,-7.82986 0.0394,-7.96864 0.27975,-8.29045 0.63649,-0.85234 1.52757,-1.07984 2.41396,-0.6163 1.01211,0.52928 0.95709,-0.008 0.95709,9.34264 0,9.33526 0.0544,8.80102 -0.94981,9.33204 -0.57337,0.30321 -1.07152,0.33516 -1.60467,0.10293 z"
         id="path10"
         transform="scale(0.26458333)" /><path
         style="fill:#3d3d3d;fill-opacity:1;stroke:none;stroke-width:0.094309;stroke-opacity:1"
         d="m 219.58186,452.74881 c -2.23829,-3.56621 -3.95941,-6.37569 -4.40346,-7.18803 -0.40093,-0.73347 -0.9547,-1.69364 -1.23059,-2.13372 -0.64313,-1.02586 -1.6392,-3.01791 -2.62833,-5.25642 -0.73698,-1.66787 -0.80338,-1.8505 -1.18303,-3.25383 l -0.40222,-1.48678 -0.167,-1.83233 c -0.15492,-1.69976 -0.16589,-2.00384 -0.1516,-4.20312 l 0.0154,-2.37079 0.32154,-1.98554 c 0.31587,-1.95049 0.32933,-2.00855 0.76244,-3.28947 0.34937,-1.03325 0.65018,-1.75367 1.449,-3.47031 0.55445,-1.1915 1.07631,-2.29836 1.15969,-2.45969 0.2134,-0.4129 1.3334,-1.95289 1.42029,-1.95289 0.0396,0 0.075,-0.0533 0.0787,-0.11854 0.0173,-0.3056 0.53449,-1.01098 1.8085,-2.46643 1.3611,-1.55492 2.1168,-2.3466 3.16429,-3.31491 2.80882,-2.59652 7.37428,-5.39669 11.24897,-6.89941 3.44145,-1.33469 4.88048,-1.75906 7.71655,-2.27562 1.69398,-0.30855 2.20591,-0.37671 3.8229,-0.50901 2.79039,-0.22831 3.66922,-0.2629 5.27501,-0.20762 2.18631,0.0753 4.13935,0.25739 6.59055,0.61455 2.76638,0.4031 4.52065,0.81784 6.77479,1.6017 1.8906,0.65743 4.45752,1.81255 6.13629,2.76133 1.82345,1.03056 3.90967,2.54703 5.82065,4.23103 3.00563,2.64863 3.54088,3.17802 4.67826,4.62703 1.91585,2.44077 3.49933,5.28807 4.75289,8.54633 0.48394,1.25788 0.6312,1.7314 1.01942,3.278 l 0.45377,1.80772 0.14031,1.95591 c 0.11003,1.53385 0.14063,2.44157 0.14179,4.20658 l 0.001,2.25069 -0.4826,2.10564 -0.48259,2.10565 -0.63695,1.51988 c -0.51396,1.22638 -0.90876,2.02752 -2.04459,4.14888 -1.84306,3.44225 -3.98097,7.0954 -5.50799,9.41177 -0.67561,1.02485 -1.67861,2.60447 -2.22889,3.51028 -0.62879,1.03503 -1.22932,1.93923 -1.61635,2.43369 -0.33871,0.43274 -0.64833,0.84908 -0.68804,0.92522 -0.0397,0.0762 -0.0866,0.12403 -0.10423,0.1064 -0.0633,-0.0633 1.02001,-1.8351 3.42911,-5.60875 4.05535,-6.35236 6.5832,-10.80895 8.18618,-14.43219 0.84264,-1.90466 1.16946,-2.97399 1.43603,-4.69873 0.28046,-1.8145 0.34938,-2.84258 0.35252,-5.2586 0.005,-3.8984 -0.27527,-5.913 -1.20834,-8.68303 -2.63213,-7.81406 -8.92237,-14.81677 -17.04298,-18.9734 -4.72913,-2.42065 -8.84674,-3.51064 -15.55897,-4.11866 -1.39101,-0.126 -5.2054,-0.17755 -6.40625,-0.0866 -4.3361,0.3285 -8.88041,1.39298 -12.8268,3.00463 -2.15927,0.88182 -4.84538,2.3087 -6.73563,3.57804 -5.00558,3.36131 -8.99261,7.82872 -11.63008,13.03133 -1.12342,2.21603 -1.83343,3.96166 -2.04898,5.03763 -0.2198,1.09723 -0.25159,1.74885 -0.28235,5.78756 -0.0298,3.91372 0.0212,6.18136 0.16522,7.34946 0.15376,1.24686 0.55553,2.41797 1.63098,4.75405 1.29468,2.81228 2.54915,4.98088 7.62134,13.17507 2.48616,4.01641 3.90147,6.41984 3.82531,6.49599 -0.0148,0.0147 -1.68034,-2.60769 -3.70131,-5.82764 z"
         id="path12"
         transform="scale(0.26458333)" /><path
         style="fill:#3d3d3d;fill-opacity:1;stroke:none;stroke-width:0.094309;stroke-opacity:1"
         d="m 214.39182,431.60274 c -0.17413,-1.11705 -0.22267,-1.67697 -0.25948,-2.99313 -0.0528,-1.88737 0.12418,-3.91486 0.48108,-5.51209 0.20191,-0.90357 0.18047,-0.53894 -0.0532,0.90405 -0.188,1.16117 -0.207,1.40016 -0.24394,3.06703 -0.035,1.58139 -0.0238,2.00203 0.09,3.35961 0.14463,1.72593 0.13927,2.16087 -0.0145,1.17453 z"
         id="path13"
         transform="scale(0.26458333)" /><path
         style="fill:#3d3d3d;fill-opacity:1;stroke:none;stroke-width:0.266746;stroke-opacity:1"
         d="m 295.10371,470.2588 c -1.06955,-0.72581 -12.9631,-10.87395 -13.16864,-11.2361 -0.74103,-1.30565 0.7715,-2.83037 2.1961,-2.21381 0.49765,0.21539 13.03485,10.71836 13.47233,11.28638 0.33313,0.43254 0.2568,1.43517 -0.14183,1.86306 -0.71578,0.76829 -1.51795,0.87052 -2.35796,0.30047 z"
         id="path14"
         transform="scale(0.26458333)" /><path
         style="fill:#3d3d3d;fill-opacity:1;stroke:none;stroke-width:0.266746;stroke-opacity:1"
         d="m 297.81305,447.59064 c -5.81654,-2.3734 -8.06459,-3.36615 -8.34011,-3.68303 -0.40181,-0.46213 -0.49086,-1.23061 -0.20458,-1.76552 0.21589,-0.40339 1.01956,-0.82892 1.56553,-0.82892 0.22751,0 4.05975,1.47455 8.51607,3.27677 5.72761,2.31635 8.21296,3.40006 8.4796,3.69743 0.55219,0.61584 0.50597,1.47247 -0.11284,2.09127 -0.86835,0.86835 -1.10909,0.80058 -9.90367,-2.788 z"
         id="path15"
         transform="scale(0.26458333)" /><path
         style="fill:#3d3d3d;fill-opacity:1;stroke:none;stroke-width:0.266746;stroke-opacity:1"
         d="m 290.42945,423.05875 c -0.63384,-0.63385 -0.67147,-1.4715 -0.0961,-2.14035 0.35042,-0.40739 0.56096,-0.47896 1.71832,-0.58416 0.72543,-0.0659 4.92867,-0.12526 9.34055,-0.13182 l 8.02159,-0.0119 0.56998,0.56998 c 0.80039,0.80039 0.70011,1.75617 -0.25216,2.40328 -0.40047,0.27214 -1.1677,0.29951 -9.6209,0.34311 l -9.18572,0.0474 z"
         id="path16"
         transform="scale(0.26458333)" /><path
         style="fill:#3d3d3d;fill-opacity:1;stroke:none;stroke-width:0.266746;stroke-opacity:1"
         d="m 287.53443,403.69221 c -0.56843,-0.5268 -0.72573,-1.17668 -0.43087,-1.78001 0.28288,-0.57881 12.17216,-11.51589 13.00944,-11.96752 0.54462,-0.29377 0.65669,-0.30112 1.27799,-0.0838 0.84662,0.2961 1.36427,1.08199 1.20133,1.82384 -0.0846,0.38509 -1.44389,1.72489 -5.86604,5.78183 -7.72787,7.08965 -7.17142,6.63049 -8.03535,6.63049 -0.52856,0 -0.83571,-0.10752 -1.1565,-0.40481 z"
         id="path17"
         transform="scale(0.26458333)" /><path
         style="fill:#3d3d3d;fill-opacity:1;stroke:none;stroke-width:0.266746;stroke-opacity:1"
         d="m 269.50702,391.268 c -0.98778,-0.83116 -1.02456,-0.70909 2.65869,-8.82311 1.85587,-4.08841 3.48813,-7.60951 3.62724,-7.82466 0.39246,-0.607 1.30423,-0.92383 1.99883,-0.69459 0.68225,0.22516 1.24555,0.88855 1.24555,1.46686 0,0.63846 -6.68847,15.29104 -7.22964,15.83812 -0.61478,0.62151 -1.58769,0.63731 -2.30067,0.0374 z"
         id="path18"
         transform="scale(0.26458333)" /><path
         style="fill:#3d3d3d;fill-opacity:1;stroke:none;stroke-width:0.266746;stroke-opacity:1"
         d="m 246.57361,386.63286 c -0.19834,-0.096 -0.48547,-0.41148 -0.63808,-0.70112 -0.24946,-0.47344 -0.27229,-1.36179 -0.22614,-8.79676 l 0.0513,-8.27013 0.54747,-0.48907 c 0.30539,-0.27282 0.73896,-0.48907 0.98051,-0.48907 0.70606,0 1.56389,0.49621 1.70091,0.98389 0.16435,0.58496 0.16039,16.40416 -0.004,16.99248 -0.22207,0.79357 -1.51191,1.20526 -2.41176,0.76978 z"
         id="path19"
         transform="scale(0.26458333)" /><path
         style="fill:#3d3d3d;fill-opacity:1;stroke:none;stroke-width:0.266746;stroke-opacity:1"
         d="m 221.89997,391.31318 c -0.45513,-0.21892 -0.86127,-0.99743 -3.21337,-6.15952 -0.94526,-2.07455 -1.76568,-3.80963 -1.82316,-3.85573 -0.0575,-0.0461 -0.1252,-0.19697 -0.15052,-0.33528 -0.0778,-0.42487 -0.58486,-1.50876 -0.70587,-1.50876 -0.0628,0 -0.11424,-0.0994 -0.11424,-0.2209 0,-0.12149 -0.30321,-0.93245 -0.6738,-1.80213 -0.97261,-2.28246 -0.98693,-2.39043 -0.40365,-3.04324 0.41652,-0.46616 0.60518,-0.54968 1.24168,-0.54968 0.95539,0 1.33733,0.33725 1.99302,1.75981 0.27635,0.59954 1.06948,2.3348 1.76252,3.85614 0.69305,1.52134 1.30791,2.80378 1.36637,2.84988 0.0585,0.0461 0.1308,0.19698 0.16077,0.33529 0.03,0.1383 0.72777,1.76323 1.55067,3.61096 1.49327,3.35295 1.6667,3.9544 1.28131,4.44346 -0.60411,0.76662 -1.47333,1.00373 -2.27173,0.6197 z"
         id="path20"
         transform="scale(0.26458333)" /><path
         style="fill:#3d3d3d;fill-opacity:1;stroke:none;stroke-width:0.266746;stroke-opacity:1"
         d="m 226.524,566.91279 -17.56033,-3.6233 v -26.542 -26.54199 l 1.29922,0.0933 c 0.71456,0.0513 7.67373,0.35274 15.46482,0.6698 7.79108,0.31705 14.86341,0.62333 15.71628,0.68062 l 1.55067,0.10415 v 5.76795 c 0,3.17237 -0.0189,5.76793 -0.0419,5.76791 -0.0231,-2e-5 -3.02172,-0.22584 -6.6637,-0.50183 -3.64199,-0.27599 -6.86801,-0.50229 -7.16895,-0.50289 l -0.54715,-10e-4 0.0442,5.399 0.0442,5.39899 6.62179,0.71323 c 3.64199,0.39228 6.64066,0.71622 6.66371,0.71988 0.023,0.004 0.0419,2.45839 0.0419,5.45496 0,5.07966 -0.0198,5.44785 -0.29337,5.4416 -0.16136,-0.004 -3.16002,-0.40217 -6.66371,-0.88552 l -6.37033,-0.8788 -0.044,6.19764 c -0.0242,3.4087 0.0135,6.24951 0.0838,6.31292 0.0703,0.0634 3.52252,0.69574 7.67162,1.4052 4.14909,0.70946 7.67583,1.32746 7.83718,1.37333 0.27211,0.0774 0.29337,0.5018 0.29337,5.85569 0,4.51348 -0.0457,5.76927 -0.20955,5.75841 -0.11525,-0.008 -8.11169,-1.64437 -17.76987,-3.63719 z"
         id="path21"
         transform="scale(0.26458333)" /><path
         style="fill:#3d3d3d;fill-opacity:1;stroke:none;stroke-width:0.754472;stroke-opacity:1"
         d="m 248.22195,565.02038 v -4.65125 l 2.72641,-0.59948 c 3.70898,-0.81551 7.12761,-2.32565 7.96221,-3.51722 0.57992,-0.82795 0.69119,-4.32826 0.69119,-21.74427 v -20.75747 h 12.09104 12.09104 v 19.9382 c 0,22.27161 0.13141,21.33209 -3.40754,24.36131 -3.37554,2.88933 -8.66713,4.92719 -24.09365,9.27874 -3.78142,1.06667 -7.14201,2.03014 -7.468,2.14105 -0.44758,0.15227 -0.5927,-0.93718 -0.5927,-4.44961 z"
         id="path22"
         transform="scale(0.26458333)" /><path
         style="fill:#3d3d3d;fill-opacity:1;stroke:none;stroke-width:0.754472;stroke-opacity:1"
         d="m 298.41097,553.41267 c -2.71352,-0.7513 -4.39794,-1.82219 -5.49298,-3.49223 -0.72818,-1.11054 -0.85722,-2.76032 -0.99748,-12.7526 -0.20288,-14.45378 0.083,-16.15305 3.23243,-19.21162 7.24929,-7.04021 26.34294,-6.9275 30.22508,0.17841 0.7372,1.34938 0.843,2.88203 0.843,12.21161 0,10.03475 -0.0609,10.78124 -1.02531,12.5652 -1.81375,3.35512 -5.45987,6.1789 -10.59157,8.20276 -5.90826,2.33012 -12.63193,3.28449 -16.19317,2.29847 z m 14.25649,-7.77482 c 0.9957,-0.81535 1.01105,-1.05244 0.8823,-13.63206 l -0.13102,-12.80228 -1.57199,-0.15089 c -2.94731,-0.2829 -2.93251,-0.35294 -2.93251,13.88052 0,7.09625 0.14224,13.04452 0.3161,13.21838 0.59182,0.59182 2.42091,0.31846 3.43712,-0.51367 z"
         id="path23"
         transform="scale(0.26458333)" /><path
         style="fill:#3d3d3d;fill-opacity:1;stroke:none;stroke-width:0.754472;stroke-opacity:1"
         d="m 331.19968,529.34919 v -16.17012 l 7.70508,0.17191 c 10.1137,0.22565 11.51995,0.96724 12.07748,6.36914 0.30621,2.96691 -0.43388,4.46103 -2.83586,5.72513 l -1.53655,0.80864 1.64815,0.34864 c 2.62106,0.55445 3.33064,1.84339 3.32978,6.04849 -9.2e-4,4.5353 -0.91793,6.57965 -3.52138,7.85049 -1.86008,0.90797 -15.15217,5.00185 -16.274,5.01228 -0.46268,0.004 -0.5927,-3.54167 -0.5927,-16.1646 z m 12.22821,7.97788 c 0.42625,-0.34141 0.56979,-1.57987 0.47415,-4.09086 l -0.13716,-3.60121 -1.54101,-0.14858 -1.54102,-0.14858 v 4.5665 c 0,4.51643 0.0117,4.56291 1.06686,4.23943 0.58677,-0.17988 1.34195,-0.5474 1.67818,-0.8167 z m 0.005,-12.76557 c 0.73828,-0.73827 0.73828,-5.23612 0,-5.97439 -0.31294,-0.31295 -1.05974,-0.56899 -1.65955,-0.56899 -1.04104,0 -1.09057,0.16149 -1.09057,3.55618 0,3.3947 0.0495,3.55619 1.09057,3.55619 0.59981,0 1.34661,-0.25604 1.65955,-0.56899 z"
         id="path24"
         transform="scale(0.26458333)" /><path
         style="fill:#3d3d3d;fill-opacity:1;stroke:none;stroke-width:0.754472;stroke-opacity:1"
         d="m 194.09176,560.0608 -6.95142,-1.37698 -2.25016,-6.46371 c -1.23759,-3.55505 -3.12368,-8.91749 -4.1913,-11.91655 l -1.94114,-5.45282 -0.12735,11.05334 c -0.11776,10.22097 -0.18917,11.03583 -0.94832,10.82074 -0.45153,-0.12794 -3.11471,-0.7101 -5.91817,-1.2937 l -5.0972,-1.0611 v -22.89416 -22.89415 l 5.80844,0.28487 c 3.19464,0.15668 5.94868,0.50013 6.12009,0.76323 0.1714,0.2631 2.19843,5.38209 4.5045,11.37554 l 4.19286,10.89719 0.12717,-11.23008 0.12717,-11.23007 6.74813,0.32166 c 3.71147,0.17692 6.80332,0.36578 6.87079,0.41969 0.0675,0.0539 0.0675,11.60813 0,25.67603 l -0.12266,25.578 z"
         id="path25"
         transform="scale(0.26458333)" /><path
         style="fill:#3d3d3d;fill-opacity:1;stroke:none;stroke-width:0.754472;stroke-opacity:1"
         d="m 153.74588,551.79088 -5.57136,-1.21302 v -21.25853 -21.25854 l 5.0972,0.006 c 2.80346,0.004 5.57729,0.13514 6.16406,0.29238 l 1.06686,0.28591 v 22.23015 c 0,17.49519 -0.12624,22.21929 -0.5927,22.17917 -0.32598,-0.028 -3.09981,-0.59682 -6.16406,-1.26399 z"
         id="path26"
         transform="scale(0.26458333)" /><path
         style="fill:#3d3d3d;fill-opacity:1;stroke:none;stroke-width:0.754472;stroke-opacity:1"
         d="m 131.57897,547.17932 -4.97866,-0.97952 -0.1238,-19.54366 -0.1238,-19.54367 3.20583,0.002 c 1.76321,0.001 5.92631,0.14068 9.25135,0.31026 l 6.04552,0.30833 v 4.02238 4.02238 l -4.03035,-0.32702 -4.03034,-0.32702 v 4.29216 4.29216 h 1.35629 c 0.74597,0 2.34625,0.13569 3.55619,0.30153 l 2.19989,0.30153 v 3.78265 3.78266 l -2.25225,-0.30888 c -1.23874,-0.16988 -2.83426,-0.42338 -3.5456,-0.56334 l -1.29334,-0.25447 -0.12913,8.70457 -0.12913,8.70458 z"
         id="path27"
         transform="scale(0.26458333)" /><path
         style="fill:#3d3d3d;fill-opacity:1;stroke:none;stroke-width:0.0666865;stroke-opacity:1"
         d="m 249.02971,504.19417 c 1.62692,-0.11343 3.09184,-0.37666 4.21197,-0.75683 1.01223,-0.34356 2.51363,-1.18577 3.50073,-1.96374 2.00216,-1.57796 3.67528,-3.64149 4.81828,-5.94255 0.70639,-1.42208 1.14403,-2.6066 1.36122,-3.68424 0.27713,-1.37508 0.39036,-2.7005 0.65691,-7.68969 0.0403,-0.75416 0.079,-1.36541 0.0861,-1.35834 0.007,0.007 -0.006,1.58594 -0.0292,3.5086 -0.0291,2.4238 -0.063,3.78988 -0.11058,4.45493 l -0.0686,0.95917 -0.24151,0.62374 c -0.15235,0.39347 -0.2948,0.6892 -0.38585,0.80105 -0.0794,0.0975 -0.15579,0.23594 -0.16979,0.3076 -0.014,0.0717 -0.18835,0.496 -0.38743,0.94298 -0.19908,0.44698 -0.46665,1.10501 -0.5946,1.46229 -0.2062,0.57582 -0.29954,0.76149 -0.8217,1.6345 -0.57238,0.95697 -0.61451,1.01436 -1.48636,2.02465 l -0.89729,1.03977 -1.04069,0.83425 c -1.01784,0.81594 -1.06607,0.8485 -2.19623,1.4826 l -1.15554,0.64833 -1.55319,0.35896 -1.55318,0.35896 -1.22323,-0.006 c -1.06396,-0.005 -1.15775,-0.0105 -0.72031,-0.041 z"
         id="path28"
         transform="scale(0.26458333)" /><path
         style="fill:#3d3d3d;fill-opacity:1;stroke:none;stroke-width:0.0666865;stroke-opacity:1"
         d="m 263.90567,479.30466 c 0.15771,-1.6142 0.32228,-2.69211 0.53289,-3.49028 0.0716,-0.27154 0.13407,-0.48843 0.13872,-0.48197 0.005,0.006 -0.007,0.68465 -0.0249,1.50708 l -0.0333,1.49534 -0.27233,0.5373 c -0.35611,0.70263 -0.36905,0.71903 -0.34105,0.43253 z"
         id="path29"
         transform="scale(0.26458333)" /><path
         style="fill:#3d3d3d;fill-opacity:1;stroke:none;stroke-width:0.0666865;stroke-opacity:1"
         d="m 265.10223,474.17195 c 0,-0.097 0.56651,-0.83854 1.36178,-1.78245 1.6882,-2.00373 2.15652,-3.748 2.15931,-8.0424 3.6e-4,-0.56628 0.018,-1.0161 0.0413,-1.05209 0.0855,-0.13231 0.0261,2.80493 -0.10727,5.30163 l -0.0649,1.21539 -0.33813,0.6496 c -0.673,1.29296 -0.92334,1.66144 -1.69886,2.50059 -0.38697,0.41872 -0.75073,0.79689 -0.80836,0.84037 -0.30946,0.2335 -0.54483,0.39306 -0.54483,0.36936 z"
         id="path30"
         transform="scale(0.26458333)" /><path
         style="fill:#3d3d3d;fill-opacity:1;stroke:none;stroke-width:0.0666865;stroke-opacity:1"
         d="m 263.65836,468.09371 c 0.0716,-1.65795 0.10689,-3.2402 0.0982,-4.40055 l -0.0101,-1.34113 0.2399,-1.02679 c 0.49691,-2.1268 1.12676,-3.71571 2.05349,-5.18034 0.29015,-0.45857 0.77046,-1.14234 1.06734,-1.51949 0.42172,-0.53575 0.73533,-1.00782 1.43387,-2.15837 0.49174,-0.80995 1.4813,-2.36847 2.19902,-3.46337 1.68083,-2.56416 3.45253,-5.58698 5.33034,-9.09449 1.23181,-2.30087 1.4057,-2.65098 1.87862,-3.78262 l 0.52116,-1.24707 0.34192,-1.49804 c 0.18805,-0.82393 0.34866,-1.5059 0.35692,-1.51551 0.10021,-0.1166 -0.003,0.79709 -0.17936,1.58909 -0.3042,1.36542 -0.83673,2.69113 -2.07911,5.1759 -0.83795,1.67588 -1.80487,3.43111 -3.3015,5.99314 -1.41457,2.42154 -2.32731,3.91409 -4.57486,7.48095 -1.49907,2.37903 -2.3864,3.90495 -3.15602,5.42735 -1.55782,3.08154 -2.03121,5.05841 -2.03283,8.4889 -4.4e-4,0.94794 -0.0588,1.8342 -0.14863,2.25848 l -0.0582,0.27498 z"
         id="path33"
         transform="scale(0.26458333)" /><path
         style="fill:#3d3d3d;fill-opacity:1;stroke:none;stroke-width:0.0471545;stroke-opacity:1"
         d="m 229.16682,474.61344 c -0.52668,-0.28513 -1.13899,-0.74968 -1.77751,-1.34856 -0.67746,-0.6354 -0.91291,-0.89118 -1.11427,-1.2105 -0.21815,-0.34591 -0.62963,-1.08199 -0.61374,-1.09788 0.006,-0.006 0.75718,0.71614 1.66926,1.60478 2.01963,1.96771 2.34805,2.29372 2.31015,2.29318 -0.0162,-2.3e-4 -0.22946,-0.10869 -0.47389,-0.24102 z"
         id="path37"
         transform="scale(0.26458333)" /><path
         style="fill:#3d3d3d;fill-opacity:1;stroke:none;stroke-width:0.0471545;stroke-opacity:1"
         d="m 230.33084,479.75223 c -0.0251,-0.0286 -0.12829,-0.25734 -0.22936,-0.50826 -0.15353,-0.38118 -0.18823,-0.5006 -0.21094,-0.72605 -0.0246,-0.24478 -0.0938,-3.48797 -0.0748,-3.50699 0.004,-0.004 0.10907,0.0887 0.23253,0.20688 l 0.22447,0.21495 0.0629,2.17466 c 0.0346,1.19606 0.058,2.17965 0.0519,2.18576 -0.006,0.006 -0.0316,-0.0123 -0.0567,-0.041 z"
         id="path38"
         transform="scale(0.26458333)" /><path
         style="fill:#3d3d3d;fill-opacity:1;stroke:none;stroke-width:0.0471545;stroke-opacity:1"
         d="m 232.9748,471.52139 c -0.56216,-0.15467 -0.89379,-0.3274 -1.64474,-0.85666 -0.35306,-0.24883 -0.74286,-0.61511 -0.92303,-0.86733 -0.35517,-0.49721 -0.52636,-1.13943 -0.60304,-2.26234 -0.0172,-0.25264 -0.0441,-1.23281 -0.0597,-2.17817 -0.0156,-0.94535 -0.0423,-1.87218 -0.0593,-2.05962 -0.16456,-1.80629 -0.53537,-3.06073 -1.45416,-4.9194 -0.82515,-1.66922 -1.6355,-3.03062 -4.83354,-8.12037 -0.92794,-1.47684 -1.88968,-3.03609 -2.54963,-4.13366 l -0.49892,-0.82978 0.10842,-0.009 c 0.0596,-0.005 0.11788,0.001 0.12942,0.0148 0.0115,0.0133 1.67454,2.65805 3.69555,5.87714 2.0792,3.31178 3.77356,6.04156 3.90257,6.28745 0.1254,0.239 0.30551,0.60634 0.40025,0.8163 0.0947,0.20996 0.24124,0.49857 0.32557,0.64135 0.13931,0.23584 0.16292,0.30351 0.2581,0.73953 0.17021,0.77978 0.1835,0.8192 0.43225,1.28196 l 0.23794,0.44264 0.13816,3.80808 0.13815,3.80809 0.17735,0.3227 c 0.16085,0.29268 0.20965,0.35297 0.52458,0.64812 0.5662,0.53062 0.73564,0.64649 1.47615,1.00944 0.55934,0.27415 1.03722,0.55085 1.03722,0.60057 0,0.0251 -0.11088,0.006 -0.35561,-0.0614 z"
         id="path39"
         transform="scale(0.26458333)" /><path
         style="fill:#3d3d3d;fill-opacity:1;stroke:none;stroke-width:0.0471545;stroke-opacity:1"
         d="m 232.92909,471.49174 c -0.48382,-0.14315 -0.71902,-0.25894 -1.27305,-0.62671 -1.01154,-0.67149 -1.43788,-1.18907 -1.64463,-1.99658 -0.16452,-0.64262 -0.19922,-1.1175 -0.25225,-3.45229 -0.0244,-1.07574 -0.0582,-2.09593 -0.075,-2.26707 -0.16595,-1.68664 -0.51938,-2.87323 -1.3902,-4.66749 -0.79981,-1.64796 -1.38623,-2.63955 -4.65311,-7.86807 -1.33596,-2.13816 -2.16816,-3.48873 -3.15905,-5.12684 l -0.0986,-0.16299 0.0902,-0.009 c 0.0496,-0.005 0.0947,-0.005 0.10015,5e-4 0.0205,0.0205 3.80501,6.04417 5.12585,8.1586 2.38685,3.82095 2.41279,3.86436 2.85902,4.78603 0.10653,0.22004 0.25776,0.51806 0.33607,0.66226 0.11589,0.21344 0.16185,0.3457 0.24714,0.71124 0.10538,0.45168 0.21063,0.83857 0.24309,0.89357 0.01,0.0163 0.02,0.0459 0.023,0.0657 0.003,0.0198 0.0981,0.20712 0.21127,0.41617 l 0.20579,0.38009 0.13866,3.81329 0.13866,3.8133 0.16162,0.28539 c 0.19279,0.34042 0.25463,0.41417 0.66358,0.79138 0.42959,0.39627 0.64032,0.53549 1.41992,0.9381 0.60345,0.31165 0.92404,0.49368 0.92404,0.52469 0,0.0251 -0.1183,0.003 -0.34205,-0.0628 z"
         id="path40"
         transform="scale(0.26458333)" /><path
         style="fill:#3d3d3d;fill-opacity:1;stroke:none;stroke-width:0.0666865;stroke-opacity:1"
         d="m 279.27416,429.66551 c -0.005,-1.38806 -0.0283,-1.99133 -0.13529,-3.5414 l -0.12897,-1.86834 -0.37483,-1.50876 c -0.34065,-1.37111 -0.41538,-1.61584 -0.8191,-2.68225 -0.66371,-1.75316 -1.61527,-3.71064 -2.51608,-5.1759 -0.56323,-0.91615 -0.83503,-1.30508 -1.55228,-2.22123 -0.85896,-1.09716 -0.88246,-1.12262 -1.93899,-2.1009 -0.58822,-0.54465 -1.62584,-1.47892 -2.30583,-2.07616 -1.06028,-0.93124 -1.42723,-1.22228 -2.57672,-2.04366 -1.72797,-1.23473 -2.71745,-1.80194 -4.79065,-2.74622 -1.95502,-0.89045 -3.43663,-1.41448 -5.35234,-1.89307 -1.27164,-0.31768 -1.44644,-0.35014 -3.37376,-0.62646 -1.64114,-0.23529 -2.33939,-0.31506 -3.62523,-0.41418 -2.89854,-0.22342 -3.70876,-0.21631 -7.02097,0.0616 -1.62021,0.13592 -1.77261,0.15619 -3.31089,0.44043 -2.45518,0.45366 -3.71074,0.82745 -6.74373,2.00766 -0.54017,0.2102 -1.00078,0.37596 -1.02357,0.36836 -0.0891,-0.0297 2.45582,-1.09464 3.74496,-1.56715 0.89579,-0.32834 1.49636,-0.50565 2.38438,-0.70397 1.54928,-0.346 3.23394,-0.57409 5.43185,-0.73544 0.98651,-0.0724 3.96068,-0.0985 5.15494,-0.0452 4.68649,0.2091 8.62841,0.89719 11.70899,2.0439 7.1141,2.64814 13.30876,7.99945 16.36577,14.13772 2.2562,4.53027 3.12203,8.30215 2.9198,12.71971 -0.0888,1.94041 -0.11463,1.97672 -0.12146,0.17098 z"
         id="path41"
         transform="scale(0.26458333)" /></g></g></svg>
